<svg viewBox="0 0 64 64" fill="none" xmlns="http://www.w3.org/2000/svg">
  <rect width="64" height="64" rx="16" fill="#030712"/>
  <defs>
    <linearGradient id="anthraciteGrad" x1="0%" y1="0%" x2="100%" y2="100%">
      <stop offset="0%" stop-color="#334155" />
      <stop offset="50%" stop-color="#1e293b" />
      <stop offset="100%" stop-color="#0f172a" />
    </linearGradient>

    <linearGradient id="purpleNeonGrad" x1="0%" y1="0%" x2="100%" y2="100%">
      <stop offset="0%" stop-color="#c084fc" />
      <stop offset="50%" stop-color="#a855f7" />
      <stop offset="100%" stop-color="#7c3aed" />
    </linearGradient>

    <radialGradient id="purpleGlow" cx="50%" cy="50%" r="50%">
      <stop offset="0%" stop-color="#a855f7" stop-opacity="0.35" />
      <stop offset="100%" stop-color="#a855f7" stop-opacity="0" />
    </radialGradient>
  </defs>

  <circle cx="32" cy="32" r="28" fill="url(#purpleGlow)" />

  <polygon
    points="32,6 54,18 54,46 32,58 10,46 10,18"
    fill="url(#anthraciteGrad)"
    stroke="#475569"
    stroke-width="1.5"
    stroke-opacity="0.6"
  />

  <polygon
    points="32,11 49,21 49,43 32,53 15,43 15,21"
    fill="none"
    stroke="url(#purpleNeonGrad)"
    stroke-width="2"
    stroke-linejoin="round"
  />

  <path
    d="M20 20L44 44M44 20L20 44"
    stroke="#1e293b"
    stroke-width="3.5"
    stroke-linecap="round"
  />
  <path
    d="M20 20L44 44M44 20L20 44"
    stroke="url(#purpleNeonGrad)"
    stroke-width="1.2"
    stroke-linecap="round"
    stroke-opacity="0.8"
  />

  <polygon
    points="32,18 44,32 32,46 20,32"
    fill="#090d16"
    stroke="url(#purpleNeonGrad)"
    stroke-width="2"
  />

  <polygon
    points="32,24 38,32 32,40 26,32"
    fill="url(#purpleNeonGrad)"
  />

  <circle cx="32" cy="32" r="3" fill="#030712" />

  <circle cx="32" cy="11" r="2" fill="#c084fc" />
  <circle cx="49" cy="32" r="2" fill="#a855f7" />
  <circle cx="32" cy="53" r="2" fill="#7c3aed" />
  <circle cx="15" cy="32" r="2" fill="#c084fc" />
</svg>
